<?xml version="1.0" encoding="utf-8"?>
<!-- Generator: Adobe Illustrator 27.7.0, SVG Export Plug-In . SVG Version: 6.00 Build 0)  -->
<svg version="1.1" id="Layer_1" xmlns="http://www.w3.org/2000/svg" xmlns:xlink="http://www.w3.org/1999/xlink" x="0px" y="0px"
	 viewBox="0 0 288 288" style="enable-background:new 0 0 288 288;" xml:space="preserve">
<style type="text/css">
	.st0{fill:#231F20;}
	.st1{fill:#32518A;}
</style>
<path class="st0" d="M21.8,143.48c0-15.49-0.03-30.98,0.06-46.47c0.01-0.97,0.66-2.39,1.45-2.85c20.9-12.1,41.87-24.08,62.8-36.14
	c6.53-3.76,13-7.64,19.43-11.58c1.37-0.84,2.45-0.89,3.76-0.12c9.75,5.75,19.62,11.28,29.2,17.29c3.89,2.44,6.7,3.05,10.87,0.2
	c6.74-4.59,14.16-8.19,21.26-12.26c2.78-1.6,5.56-3.23,8.16-5.1c1.38-0.99,2.38-0.83,3.69-0.07c8.18,4.77,16.37,9.51,24.58,14.24
	c10.22,5.89,20.47,11.72,30.68,17.62c8.68,5.02,17.31,10.12,25.98,15.16c1.57,0.91,2.52,2,2.52,3.99
	c-0.08,28.49-0.1,56.99-0.13,85.48c0,2.25-0.11,4.5,0.04,6.74c0.15,2.38-0.8,3.88-2.85,5.06c-10.98,6.34-21.89,12.8-32.86,19.16
	c-15.83,9.18-31.7,18.28-47.51,27.5c-1.64,0.96-2.78,0.85-4.36-0.08c-10.63-6.3-21.33-12.48-31.98-18.75
	c-1.89-1.11-3.27-0.91-5.21,0.29c-7.3,4.51-14.82,8.67-22.23,12.99c-3.26,1.9-6.5,3.83-9.7,5.83c-1.22,0.76-2.2,0.85-3.52,0.07
	c-16.03-9.47-32.05-18.95-48.16-28.28c-10.62-6.16-21.32-12.18-32.08-18.08c-2.9-1.59-3.98-3.45-3.93-6.83
	c0.21-15,0.09-30.01,0.09-45.02C21.84,143.48,21.82,143.48,21.8,143.48z M167.25,126.08c-0.19,0.01-0.38,0.02-0.57,0.03
	c-15.47,0-30.94,0-46.71,0c0,3.22,0.16,5.94-0.05,8.63c-0.2,2.55,0.9,3.14,3.21,3.12c8.11-0.09,16.22-0.02,24.33-0.02
	c6.02,0,12.05,0.02,18.07-0.07c0.85-0.01,2.42-0.53,2.44-0.85c0.12-3.5-0.01-7-0.1-10.51C167.86,126.29,167.46,126.19,167.25,126.08
	z M169.38,80.85c7.24,4.18,14.01,8.17,20.86,11.99c2.04,1.13,2.72,2.54,2.71,4.82c-0.08,30.81-0.1,61.62-0.05,92.44
	c0,2.49-0.83,3.96-3,5.16c-6.53,3.61-12.95,7.4-19.4,11.15c-0.35,0.2-0.53,0.69-0.84,1.12c3.37,2.01,6.54,4.02,9.85,5.79
	c0.74,0.4,2.07,0.23,2.89-0.17c2.09-1.01,4.03-2.32,6.04-3.49c16.66-9.66,33.29-19.35,50-28.93c2.2-1.26,3.07-2.79,2.96-5.22
	c-0.12-2.64-0.04-5.29-0.04-7.94c0.02-18.7,0.03-37.39,0.08-56.09c0-1.43-0.14-2.53-1.63-3.37c-8.29-4.73-16.49-9.61-24.76-14.38
	c-10.83-6.26-21.67-12.51-32.58-18.63c-0.97-0.54-2.69-0.47-3.74,0.01c-2.61,1.2-5.06,2.78-7.54,4.25
	C170.62,79.7,170.14,80.22,169.38,80.85z M119.25,80.88c-1.2-0.83-1.87-1.36-2.6-1.79c-1.94-1.13-3.94-2.15-5.85-3.33
	c-2.03-1.25-3.97-1.39-6.09-0.16c-11.93,6.94-23.88,13.84-35.83,20.74c-6.53,3.77-13,7.65-19.65,11.21
	c-1.83,0.98-2.57,1.86-2.57,3.94c0.07,21.67,0.06,43.34,0,65c0,1.75,0.55,2.71,2.09,3.57c9.71,5.48,19.37,11.05,29.02,16.63
	c9.16,5.3,18.28,10.69,27.47,15.93c1.07,0.61,2.81,1.15,3.74,0.69c3.35-1.66,6.47-3.75,10.02-5.88c-0.8-0.63-1.34-1.17-1.97-1.54
	c-6.38-3.71-12.73-7.47-19.19-11.04c-1.94-1.07-2.81-2.34-2.8-4.54c0.11-15.17,0.19-30.33,0.2-45.5c0.01-15.65-0.05-31.3-0.14-46.94
	c-0.01-2.34,0.74-3.86,2.97-4.93c3.68-1.78,7.22-3.85,10.77-5.88C112.17,85.16,115.43,83.15,119.25,80.88z M167.89,173.63
	c-2.03,0-4.02,0-6,0c-12.91-0.02-25.82-0.03-38.72-0.05c-3.4-0.01-3.75,0.17-3.13,3.53c0.21,1.17,1.45,2.42,2.54,3.1
	c5.77,3.6,11.73,6.9,17.46,10.57c2.9,1.86,5.36,1.78,8.2,0.01c5.44-3.38,10.98-6.6,16.53-9.81
	C168.5,178.81,168.55,178.83,167.89,173.63z M168.16,113.69c0-1.57,0.09-2.92-0.05-4.25c-0.05-0.52-0.51-1.17-0.97-1.44
	c-6.71-3.93-13.48-7.75-20.16-11.72c-2.07-1.23-3.74-1.04-5.77,0.18c-6.1,3.68-12.29,7.22-18.52,10.67
	c-3.73,2.06-3.94,2.34-2.27,6.55C136.17,113.69,151.95,113.69,168.16,113.69z M168.04,150.37c-16.03,0-31.92,0-47.95,0
	c0,3.73,0,7.36,0,11.15c16.06,0,31.96,0,47.95,0C168.04,157.77,168.04,154.21,168.04,150.37z"/>
<path class="st1" d="M168.43,100.95c-0.1,0-0.2,0.01-0.29,0.01C168.24,100.96,168.33,100.96,168.43,100.95z"/>
</svg>
